<?xml version="1.0" standalone="no"?>
<!DOCTYPE svg PUBLIC "-//W3C//DTD SVG 20010904//EN"
 "http://www.w3.org/TR/2001/REC-SVG-20010904/DTD/svg10.dtd">
<svg version="1.0" xmlns="http://www.w3.org/2000/svg"
 width="512.000000pt" height="512.000000pt" viewBox="0 0 512.000000 512.000000"
 preserveAspectRatio="xMidYMid meet">
<metadata>
Created by potrace 1.14, written by Peter Selinger 2001-2017
</metadata>
<g transform="translate(0.000000,512.000000) scale(0.100000,-0.100000)"
fill="#000000" stroke="none">
<path d="M2320 4949 c-488 -59 -873 -216 -1250 -508 -105 -82 -294 -269 -380
-376 -267 -335 -458 -775 -506 -1170 -3 -27 -9 -77 -14 -110 -15 -111 -4 -449
18 -590 49 -302 132 -538 298 -845 10 -19 21 -37 24 -40 3 -3 27 -39 54 -80
93 -142 173 -237 329 -392 369 -366 876 -606 1407 -666 130 -14 589 -5 619 12
3 2 26 7 51 10 81 11 283 64 395 104 593 212 1085 656 1358 1225 37 76 95 217
103 247 2 8 12 40 23 70 11 31 22 67 25 80 3 14 14 61 25 105 11 44 22 100 26
125 3 25 8 59 11 75 17 117 21 194 18 370 -1 110 -5 216 -8 235 -3 19 -8 51
-11 70 -7 52 -14 87 -30 165 -8 39 -17 79 -19 90 -39 180 -181 507 -303 695
-150 231 -351 451 -558 611 -198 153 -470 298 -699 374 -124 41 -322 88 -421
101 -27 3 -61 8 -75 11 -44 8 -442 10 -510 2z"/>
</g>
</svg>
